<svg xmlns="http://www.w3.org/2000/svg" viewBox="0 0 512 512" role="img" aria-labelledby="title description">
  <title id="title">GitPaste logo</title>
  <desc id="description">A clipboard containing a Git branch, with a coral image sheet behind it.</desc>
  <rect x="16" y="16" width="480" height="480" rx="104" fill="#20262e"/>
  <rect x="20" y="20" width="472" height="472" rx="100" fill="none" stroke="#343c46" stroke-width="8"/>

  <rect x="132" y="74" width="270" height="328" rx="38" fill="#ff6b5f"/>
  <rect x="98" y="94" width="288" height="330" rx="38" fill="#f7f9fb"/>
  <path d="M98 354h288v32c0 21-17 38-38 38H136c-21 0-38-17-38-38z" fill="#e8edf1"/>

  <rect x="184" y="66" width="116" height="72" rx="28" fill="#2acb8b"/>
  <rect x="210" y="88" width="64" height="24" rx="12" fill="#20262e"/>

  <rect x="168" y="204" width="24" height="124" rx="12" fill="#20262e"/>
  <path d="M180 254 H237 C275 254 300 234 300 200 H324 C324 250 290 278 237 278 H180 Z" fill="#20262e"/>
  <circle cx="180" cy="204" r="24" fill="#2acb8b" stroke="#20262e" stroke-width="12"/>
  <circle cx="180" cy="328" r="24" fill="#ff6b5f" stroke="#20262e" stroke-width="12"/>
  <circle cx="312" cy="190" r="24" fill="#2acb8b" stroke="#20262e" stroke-width="12"/>
</svg>
